<?xml version="1.0" encoding="UTF-8" standalone="no"?>
<!DOCTYPE svg PUBLIC "-//W3C//DTD SVG 1.1//EN"
 "http://www.w3.org/Graphics/SVG/1.1/DTD/svg11.dtd">
<!-- Generated by graphviz version 12.0.0 (20240704.0754)
 -->
<!-- Title: G Pages: 1 -->
<svg width="1772pt" height="419pt"
 viewBox="0.00 0.00 1772.00 419.00" xmlns="http://www.w3.org/2000/svg" xmlns:xlink="http://www.w3.org/1999/xlink">
<g id="graph0" class="graph" transform="scale(1 1) rotate(0) translate(4 415)">
<title>G</title>
<polygon fill="white" stroke="none" points="-4,4 -4,-415 1768,-415 1768,4 -4,4"/>
<!-- puuclocks/cmd -->
<g id="node1" class="node">
<title>puuclocks/cmd</title>
<g id="a_node1"><a xlink:href="https://pkg.go.dev/puuclocks/cmd" xlink:title="puuclocks/cmd\l61 / 1.6KB\l" target="_graphviz">
<polygon fill="none" stroke="#91078e" stroke-width="2" stroke-opacity="0.698039" points="126,-273 18,-273 18,-237 126,-237 126,-273"/>
<text text-anchor="start" x="26" y="-256.75" font-family="Times,serif" font-size="10.00">puuclocks/cmd</text>
<text text-anchor="start" x="26" y="-245.5" font-family="Times,serif" font-size="10.00">61 / 1.6KB</text>
</a>
</g>
</g>
<!-- puuclocks/gen -->
<g id="node2" class="node">
<title>puuclocks/gen</title>
<g id="a_node2"><a xlink:href="https://pkg.go.dev/puuclocks/gen" xlink:title="puuclocks/gen\l82 / 2.6KB\l" target="_graphviz">
<polygon fill="none" stroke="#079112" stroke-width="2" stroke-opacity="0.698039" points="378,-411 270,-411 270,-375 378,-375 378,-411"/>
<text text-anchor="start" x="278" y="-394.75" font-family="Times,serif" font-size="10.00">puuclocks/gen</text>
<text text-anchor="start" x="278" y="-383.5" font-family="Times,serif" font-size="10.00">82 / 2.6KB</text>
</a>
</g>
</g>
<!-- puuclocks/cmd&#45;&gt;puuclocks/gen -->
<g id="edge1" class="edge">
<title>puuclocks/cmd:e&#45;&gt;puuclocks/gen</title>
<path fill="none" stroke="#079112" stroke-width="2" stroke-opacity="0.698039" d="M127,-255C199.84,-255 190.42,-322.1 252,-361 256.01,-363.53 260.25,-365.97 264.59,-368.29"/>
<polygon fill="#079112" fill-opacity="0.698039" stroke="#079112" stroke-width="2" stroke-opacity="0.698039" points="262.99,-371.41 273.49,-372.79 266.14,-365.16 262.99,-371.41"/>
</g>
<!-- puuclocks/internal/infrastructure -->
<g id="node6" class="node">
<title>puuclocks/internal/infrastructure</title>
<g id="a_node6"><a xlink:href="https://pkg.go.dev/puuclocks/internal/infrastructure" xlink:title="puuclocks/internal/infrastructure\l96 / 2.4KB\l" target="_graphviz">
<polygon fill="none" stroke="#5e9107" stroke-width="2" stroke-opacity="0.698039" points="936,-342 756,-342 756,-306 936,-306 936,-342"/>
<text text-anchor="start" x="764" y="-325.75" font-family="Times,serif" font-size="10.00">puuclocks/internal/infrastructure</text>
<text text-anchor="start" x="764" y="-314.5" font-family="Times,serif" font-size="10.00">96 / 2.4KB</text>
</a>
</g>
</g>
<!-- puuclocks/cmd&#45;&gt;puuclocks/internal/infrastructure -->
<g id="edge2" class="edge">
<title>puuclocks/cmd:e&#45;&gt;puuclocks/internal/infrastructure</title>
<path fill="none" stroke="#5e9107" stroke-width="2" stroke-opacity="0.698039" d="M127,-255C184.69,-255 195.59,-277.9 252,-290 362.75,-313.76 391.05,-319.53 504,-328 567.82,-332.78 584,-328.65 648,-328 678.68,-327.69 712.04,-327.1 742.44,-326.48"/>
<polygon fill="#5e9107" fill-opacity="0.698039" stroke="#5e9107" stroke-width="2" stroke-opacity="0.698039" points="742.32,-329.98 752.25,-326.27 742.17,-322.98 742.32,-329.98"/>
</g>
<!-- puuclocks/internal/log -->
<g id="node7" class="node">
<title>puuclocks/internal/log</title>
<g id="a_node7"><a xlink:href="https://pkg.go.dev/puuclocks/internal/log" xlink:title="puuclocks/internal/log\l27 / 538B\l" target="_graphviz">
<polygon fill="none" stroke="#914d07" stroke-width="2" stroke-opacity="0.698039" points="1494,-235 1350,-235 1350,-199 1494,-199 1494,-235"/>
<text text-anchor="start" x="1358" y="-218.75" font-family="Times,serif" font-size="10.00">puuclocks/internal/log</text>
<text text-anchor="start" x="1358" y="-207.5" font-family="Times,serif" font-size="10.00">27 / 538B</text>
</a>
</g>
</g>
<!-- puuclocks/cmd&#45;&gt;puuclocks/internal/log -->
<g id="edge3" class="edge">
<title>puuclocks/cmd:e&#45;&gt;puuclocks/internal/log</title>
<path fill="none" stroke="#914d07" stroke-width="2" stroke-opacity="0.698039" d="M127,-255C326.11,-255 375.89,-255 575,-255 575,-255 575,-255 847,-255 1021.12,-255 1224.31,-237.37 1336.21,-226.13"/>
<polygon fill="#914d07" fill-opacity="0.698039" stroke="#914d07" stroke-width="2" stroke-opacity="0.698039" points="1336.46,-229.62 1346.05,-225.13 1335.75,-222.66 1336.46,-229.62"/>
</g>
<!-- puuclocks/internal/repository -->
<g id="node10" class="node">
<title>puuclocks/internal/repository</title>
<g id="a_node10"><a xlink:href="https://pkg.go.dev/puuclocks/internal/repository" xlink:title="puuclocks/internal/repository\l148 / 3.9KB\l" target="_graphviz">
<polygon fill="none" stroke="#91074a" stroke-width="2" stroke-opacity="0.698039" points="648,-319 504,-319 504,-283 648,-283 648,-319"/>
<text text-anchor="start" x="512" y="-302.75" font-family="Times,serif" font-size="10.00">puuclocks/internal/repository</text>
<text text-anchor="start" x="512" y="-291.5" font-family="Times,serif" font-size="10.00">148 / 3.9KB</text>
</a>
</g>
</g>
<!-- puuclocks/cmd&#45;&gt;puuclocks/internal/repository -->
<g id="edge4" class="edge">
<title>puuclocks/cmd:e&#45;&gt;puuclocks/internal/repository</title>
<path fill="none" stroke="#91074a" stroke-width="2" stroke-opacity="0.698039" d="M127,-255C182.9,-255 196.41,-263.13 252,-269 332.91,-277.54 425.29,-286.62 490.47,-292.92"/>
<polygon fill="#91074a" fill-opacity="0.698039" stroke="#91074a" stroke-width="2" stroke-opacity="0.698039" points="489.83,-296.38 500.12,-293.85 490.5,-289.41 489.83,-296.38"/>
</g>
<!-- puuclocks/internal/server -->
<g id="node11" class="node">
<title>puuclocks/internal/server</title>
<g id="a_node11"><a xlink:href="https://pkg.go.dev/puuclocks/internal/server" xlink:title="puuclocks/internal/server\l108 / 2.7KB\l" target="_graphviz">
<polygon fill="none" stroke="#910755" stroke-width="2" stroke-opacity="0.698039" points="396,-227 252,-227 252,-191 396,-191 396,-227"/>
<text text-anchor="start" x="260" y="-210.75" font-family="Times,serif" font-size="10.00">puuclocks/internal/server</text>
<text text-anchor="start" x="260" y="-199.5" font-family="Times,serif" font-size="10.00">108 / 2.7KB</text>
</a>
</g>
</g>
<!-- puuclocks/cmd&#45;&gt;puuclocks/internal/server -->
<g id="edge5" class="edge">
<title>puuclocks/cmd:e&#45;&gt;puuclocks/internal/server</title>
<path fill="none" stroke="#910755" stroke-width="2" stroke-opacity="0.698039" d="M127,-255C171.91,-255 221.1,-243.41 258.98,-231.87"/>
<polygon fill="#910755" fill-opacity="0.698039" stroke="#910755" stroke-width="2" stroke-opacity="0.698039" points="259.99,-235.22 268.48,-228.88 257.89,-228.55 259.99,-235.22"/>
</g>
<!-- puuclocks/internal/service -->
<g id="node12" class="node">
<title>puuclocks/internal/service</title>
<g id="a_node12"><a xlink:href="https://pkg.go.dev/puuclocks/internal/service" xlink:title="puuclocks/internal/service\l57 / 1.2KB\l" target="_graphviz">
<polygon fill="none" stroke="#074991" stroke-width="2" stroke-opacity="0.698039" points="918,-189 774,-189 774,-153 918,-153 918,-189"/>
<text text-anchor="start" x="782" y="-172.75" font-family="Times,serif" font-size="10.00">puuclocks/internal/service</text>
<text text-anchor="start" x="782" y="-161.5" font-family="Times,serif" font-size="10.00">57 / 1.2KB</text>
</a>
</g>
</g>
<!-- puuclocks/cmd&#45;&gt;puuclocks/internal/service -->
<g id="edge6" class="edge">
<title>puuclocks/cmd:e&#45;&gt;puuclocks/internal/service</title>
<path fill="none" stroke="#074991" stroke-width="2" stroke-opacity="0.698039" d="M127,-255C191.34,-255 190.06,-199.38 252,-182 427.35,-132.8 643.46,-146.33 760.31,-159.4"/>
<polygon fill="#074991" fill-opacity="0.698039" stroke="#074991" stroke-width="2" stroke-opacity="0.698039" points="759.69,-162.85 770.02,-160.52 760.49,-155.9 759.69,-162.85"/>
</g>
<!-- puuclocks/internal/sockets -->
<g id="node14" class="node">
<title>puuclocks/internal/sockets</title>
<g id="a_node14"><a xlink:href="https://pkg.go.dev/puuclocks/internal/sockets" xlink:title="puuclocks/internal/sockets\l224 / 4.9KB\l" target="_graphviz">
<polygon fill="none" stroke="#071c91" stroke-width="2" stroke-opacity="0.698039" points="648,-113 504,-113 504,-77 648,-77 648,-113"/>
<text text-anchor="start" x="512" y="-96.75" font-family="Times,serif" font-size="10.00">puuclocks/internal/sockets</text>
<text text-anchor="start" x="512" y="-85.5" font-family="Times,serif" font-size="10.00">224 / 4.9KB</text>
</a>
</g>
</g>
<!-- puuclocks/cmd&#45;&gt;puuclocks/internal/sockets -->
<g id="edge7" class="edge">
<title>puuclocks/cmd:e&#45;&gt;puuclocks/internal/sockets</title>
<path fill="none" stroke="#071c91" stroke-width="2" stroke-opacity="0.698039" d="M127,-255C206.52,-255 180.33,-161.44 252,-127 326.91,-91 422.72,-85.86 490.48,-87.97"/>
<polygon fill="#071c91" fill-opacity="0.698039" stroke="#071c91" stroke-width="2" stroke-opacity="0.698039" points="490.07,-91.46 500.2,-88.35 490.34,-84.46 490.07,-91.46"/>
</g>
<!-- puuclocks/internal/common -->
<g id="node3" class="node">
<title>puuclocks/internal/common</title>
<g id="a_node3"><a xlink:href="https://pkg.go.dev/puuclocks/internal/common" xlink:title="puuclocks/internal/common\l19 / 392B\l" target="_graphviz">
<polygon fill="none" stroke="#910749" stroke-width="2" stroke-opacity="0.698039" points="1764,-135 1620,-135 1620,-99 1764,-99 1764,-135"/>
<text text-anchor="start" x="1628" y="-118.75" font-family="Times,serif" font-size="10.00">puuclocks/internal/common</text>
<text text-anchor="start" x="1628" y="-107.5" font-family="Times,serif" font-size="10.00">19 / 392B</text>
</a>
</g>
</g>
<!-- puuclocks/internal/config -->
<g id="node4" class="node">
<title>puuclocks/internal/config</title>
<g id="a_node4"><a xlink:href="https://pkg.go.dev/puuclocks/internal/config" xlink:title="puuclocks/internal/config\l1 / 15B\l" target="_graphviz">
<polygon fill="none" stroke="#709107" stroke-width="2" stroke-opacity="0.698039" points="144,-327 0,-327 0,-291 144,-291 144,-327"/>
<text text-anchor="start" x="8" y="-310.75" font-family="Times,serif" font-size="10.00">puuclocks/internal/config</text>
<text text-anchor="start" x="8" y="-299.5" font-family="Times,serif" font-size="10.00">1 / 15B</text>
</a>
</g>
</g>
<!-- puuclocks/internal/consts -->
<g id="node5" class="node">
<title>puuclocks/internal/consts</title>
<g id="a_node5"><a xlink:href="https://pkg.go.dev/puuclocks/internal/consts" xlink:title="puuclocks/internal/consts\l2 / 35B\l" target="_graphviz">
<polygon fill="none" stroke="#6c9107" stroke-width="2" stroke-opacity="0.698039" points="1764,-66 1620,-66 1620,-30 1764,-30 1764,-66"/>
<text text-anchor="start" x="1628" y="-49.75" font-family="Times,serif" font-size="10.00">puuclocks/internal/consts</text>
<text text-anchor="start" x="1628" y="-38.5" font-family="Times,serif" font-size="10.00">2 / 35B</text>
</a>
</g>
</g>
<!-- puuclocks/internal/models -->
<g id="node8" class="node">
<title>puuclocks/internal/models</title>
<g id="a_node8"><a xlink:href="https://pkg.go.dev/puuclocks/internal/models" xlink:title="puuclocks/internal/models\l154 / 3.2KB\l" target="_graphviz">
<polygon fill="none" stroke="#079117" stroke-width="2" stroke-opacity="0.698039" points="1494,-36 1350,-36 1350,0 1494,0 1494,-36"/>
<text text-anchor="start" x="1358" y="-19.75" font-family="Times,serif" font-size="10.00">puuclocks/internal/models</text>
<text text-anchor="start" x="1358" y="-8.5" font-family="Times,serif" font-size="10.00">154 / 3.2KB</text>
</a>
</g>
</g>
<!-- puuclocks/internal/models&#45;&gt;puuclocks/internal/consts -->
<g id="edge8" class="edge">
<title>puuclocks/internal/models:e&#45;&gt;puuclocks/internal/consts</title>
<path fill="none" stroke="#6c9107" stroke-width="2" stroke-opacity="0.698039" d="M1495,-18C1531.94,-18 1572.36,-23.27 1606.84,-29.4"/>
<polygon fill="#6c9107" fill-opacity="0.698039" stroke="#6c9107" stroke-width="2" stroke-opacity="0.698039" points="1605.81,-32.77 1616.28,-31.13 1607.08,-25.88 1605.81,-32.77"/>
</g>
<!-- puuclocks/internal/models/actions -->
<g id="node9" class="node">
<title>puuclocks/internal/models/actions</title>
<g id="a_node9"><a xlink:href="https://pkg.go.dev/puuclocks/internal/models/actions" xlink:title="puuclocks/internal/models/actions\l257 / 6.3KB\l" target="_graphviz">
<polygon fill="none" stroke="#620791" stroke-width="2" stroke-opacity="0.698039" points="1512,-166 1332,-166 1332,-130 1512,-130 1512,-166"/>
<text text-anchor="start" x="1340" y="-149.75" font-family="Times,serif" font-size="10.00">puuclocks/internal/models/actions</text>
<text text-anchor="start" x="1340" y="-138.5" font-family="Times,serif" font-size="10.00">257 / 6.3KB</text>
</a>
</g>
</g>
<!-- puuclocks/internal/models/actions&#45;&gt;puuclocks/internal/common -->
<g id="edge9" class="edge">
<title>puuclocks/internal/models/actions:e&#45;&gt;puuclocks/internal/common</title>
<path fill="none" stroke="#910749" stroke-width="2" stroke-opacity="0.698039" d="M1512,-148C1543.18,-148 1576.98,-143.38 1606.72,-137.7"/>
<polygon fill="#910749" fill-opacity="0.698039" stroke="#910749" stroke-width="2" stroke-opacity="0.698039" points="1607.11,-141.19 1616.23,-135.8 1605.74,-134.33 1607.11,-141.19"/>
</g>
<!-- puuclocks/internal/repository&#45;&gt;puuclocks/internal/infrastructure -->
<g id="edge10" class="edge">
<title>puuclocks/internal/repository:e&#45;&gt;puuclocks/internal/infrastructure</title>
<path fill="none" stroke="#5e9107" stroke-width="2" stroke-opacity="0.698039" d="M648,-301C678.73,-301 711.98,-303.8 742.25,-307.44"/>
<polygon fill="#5e9107" fill-opacity="0.698039" stroke="#5e9107" stroke-width="2" stroke-opacity="0.698039" points="741.67,-310.89 752.03,-308.67 742.54,-303.95 741.67,-310.89"/>
</g>
<!-- puuclocks/internal/server&#45;&gt;puuclocks/internal/log -->
<g id="edge11" class="edge">
<title>puuclocks/internal/server:e&#45;&gt;puuclocks/internal/log</title>
<path fill="none" stroke="#914d07" stroke-width="2" stroke-opacity="0.698039" d="M396,-209C745,-209 1160.83,-213.7 1336.27,-215.89"/>
<polygon fill="#914d07" fill-opacity="0.698039" stroke="#914d07" stroke-width="2" stroke-opacity="0.698039" points="1336.17,-219.39 1346.21,-216.02 1336.25,-212.39 1336.17,-219.39"/>
</g>
<!-- puuclocks/internal/server&#45;&gt;puuclocks/internal/repository -->
<g id="edge12" class="edge">
<title>puuclocks/internal/server:e&#45;&gt;puuclocks/internal/repository</title>
<path fill="none" stroke="#91074a" stroke-width="2" stroke-opacity="0.698039" d="M396,-209C453.47,-209 510.99,-246.98 544.76,-274.13"/>
<polygon fill="#91074a" fill-opacity="0.698039" stroke="#91074a" stroke-width="2" stroke-opacity="0.698039" points="542.19,-276.55 552.13,-280.23 546.65,-271.16 542.19,-276.55"/>
</g>
<!-- puuclocks/internal/server&#45;&gt;puuclocks/internal/service -->
<g id="edge13" class="edge">
<title>puuclocks/internal/server:e&#45;&gt;puuclocks/internal/service</title>
<path fill="none" stroke="#074991" stroke-width="2" stroke-opacity="0.698039" d="M396,-209C431.33,-209 640.42,-190.07 760.42,-178.94"/>
<polygon fill="#074991" fill-opacity="0.698039" stroke="#074991" stroke-width="2" stroke-opacity="0.698039" points="760.52,-182.44 770.15,-178.03 759.87,-175.47 760.52,-182.44"/>
</g>
<!-- puuclocks/internal/server&#45;&gt;puuclocks/internal/sockets -->
<g id="edge14" class="edge">
<title>puuclocks/internal/server:e&#45;&gt;puuclocks/internal/sockets</title>
<path fill="none" stroke="#071c91" stroke-width="2" stroke-opacity="0.698039" d="M396,-209C428.27,-209 500.18,-155.63 542.37,-121.93"/>
<polygon fill="#071c91" fill-opacity="0.698039" stroke="#071c91" stroke-width="2" stroke-opacity="0.698039" points="544.48,-124.73 550.06,-115.72 540.08,-119.28 544.48,-124.73"/>
</g>
<!-- puuclocks/internal/service&#45;&gt;puuclocks/internal/models -->
<g id="edge15" class="edge">
<title>puuclocks/internal/service:e&#45;&gt;puuclocks/internal/models</title>
<path fill="none" stroke="#079117" stroke-width="2" stroke-opacity="0.698039" d="M919,-171C993.3,-171 976.12,-90.2 1044,-60 1137.91,-18.23 1257.42,-11.78 1336.43,-13.11"/>
<polygon fill="#079117" fill-opacity="0.698039" stroke="#079117" stroke-width="2" stroke-opacity="0.698039" points="1336.13,-16.6 1346.21,-13.33 1336.29,-9.6 1336.13,-16.6"/>
</g>
<!-- puuclocks/internal/service&#45;&gt;puuclocks/internal/models/actions -->
<g id="edge16" class="edge">
<title>puuclocks/internal/service:e&#45;&gt;puuclocks/internal/models/actions</title>
<path fill="none" stroke="#620791" stroke-width="2" stroke-opacity="0.698039" d="M919,-171C1057.33,-171 1216.87,-162.18 1318.29,-155.46"/>
<polygon fill="#620791" fill-opacity="0.698039" stroke="#620791" stroke-width="2" stroke-opacity="0.698039" points="1318.52,-158.95 1328.26,-154.79 1318.05,-151.97 1318.52,-158.95"/>
</g>
<!-- puuclocks/internal/service/game -->
<g id="node13" class="node">
<title>puuclocks/internal/service/game</title>
<g id="a_node13"><a xlink:href="https://pkg.go.dev/puuclocks/internal/service/game" xlink:title="puuclocks/internal/service/game\l298 / 8.0KB\l" target="_graphviz">
<polygon fill="none" stroke="#910717" stroke-width="2" stroke-opacity="0.698039" points="1224,-105 1044,-105 1044,-69 1224,-69 1224,-105"/>
<text text-anchor="start" x="1052" y="-88.75" font-family="Times,serif" font-size="10.00">puuclocks/internal/service/game</text>
<text text-anchor="start" x="1052" y="-77.5" font-family="Times,serif" font-size="10.00">298 / 8.0KB</text>
</a>
</g>
</g>
<!-- puuclocks/internal/service&#45;&gt;puuclocks/internal/service/game -->
<g id="edge17" class="edge">
<title>puuclocks/internal/service:e&#45;&gt;puuclocks/internal/service/game</title>
<path fill="none" stroke="#910717" stroke-width="2" stroke-opacity="0.698039" d="M919,-171C983.76,-171 1052.39,-137.26 1093.97,-112.55"/>
<polygon fill="#910717" fill-opacity="0.698039" stroke="#910717" stroke-width="2" stroke-opacity="0.698039" points="1095.66,-115.62 1102.37,-107.43 1092.01,-109.64 1095.66,-115.62"/>
</g>
<!-- puuclocks/internal/service/game&#45;&gt;puuclocks/internal/common -->
<g id="edge18" class="edge">
<title>puuclocks/internal/service/game:e&#45;&gt;puuclocks/internal/common</title>
<path fill="none" stroke="#910749" stroke-width="2" stroke-opacity="0.698039" d="M1224,-87C1357.85,-87 1512.84,-99.43 1606.32,-108.28"/>
<polygon fill="#910749" fill-opacity="0.698039" stroke="#910749" stroke-width="2" stroke-opacity="0.698039" points="1605.79,-111.75 1616.08,-109.22 1606.46,-104.78 1605.79,-111.75"/>
</g>
<!-- puuclocks/internal/service/game&#45;&gt;puuclocks/internal/consts -->
<g id="edge19" class="edge">
<title>puuclocks/internal/service/game:e&#45;&gt;puuclocks/internal/consts</title>
<path fill="none" stroke="#6c9107" stroke-width="2" stroke-opacity="0.698039" d="M1224,-87C1358.04,-87 1512.97,-70.85 1606.39,-59.33"/>
<polygon fill="#6c9107" fill-opacity="0.698039" stroke="#6c9107" stroke-width="2" stroke-opacity="0.698039" points="1606.66,-62.83 1616.15,-58.12 1605.79,-55.88 1606.66,-62.83"/>
</g>
<!-- puuclocks/internal/service/game&#45;&gt;puuclocks/internal/log -->
<g id="edge20" class="edge">
<title>puuclocks/internal/service/game:e&#45;&gt;puuclocks/internal/log</title>
<path fill="none" stroke="#914d07" stroke-width="2" stroke-opacity="0.698039" d="M1224,-87C1285.92,-87 1279.62,-141.99 1332,-175 1341.98,-181.29 1353.05,-187.24 1363.89,-192.58"/>
<polygon fill="#914d07" fill-opacity="0.698039" stroke="#914d07" stroke-width="2" stroke-opacity="0.698039" points="1362.24,-195.67 1372.78,-196.81 1365.26,-189.35 1362.24,-195.67"/>
</g>
<!-- puuclocks/internal/service/game&#45;&gt;puuclocks/internal/models -->
<g id="edge21" class="edge">
<title>puuclocks/internal/service/game:e&#45;&gt;puuclocks/internal/models</title>
<path fill="none" stroke="#079117" stroke-width="2" stroke-opacity="0.698039" d="M1224,-87C1227.54,-87 1300.18,-61.28 1356.23,-41.25"/>
<polygon fill="#079117" fill-opacity="0.698039" stroke="#079117" stroke-width="2" stroke-opacity="0.698039" points="1357.18,-44.63 1365.41,-37.97 1354.82,-38.04 1357.18,-44.63"/>
</g>
<!-- puuclocks/internal/service/game&#45;&gt;puuclocks/internal/models/actions -->
<g id="edge22" class="edge">
<title>puuclocks/internal/service/game:e&#45;&gt;puuclocks/internal/models/actions</title>
<path fill="none" stroke="#620791" stroke-width="2" stroke-opacity="0.698039" d="M1224,-87C1237.34,-87 1301.93,-107.68 1353.57,-124.96"/>
<polygon fill="#620791" fill-opacity="0.698039" stroke="#620791" stroke-width="2" stroke-opacity="0.698039" points="1352.24,-128.2 1362.83,-128.07 1354.47,-121.57 1352.24,-128.2"/>
</g>
<!-- puuclocks/internal/sockets&#45;&gt;puuclocks/internal/models -->
<g id="edge23" class="edge">
<title>puuclocks/internal/sockets:e&#45;&gt;puuclocks/internal/models</title>
<path fill="none" stroke="#079117" stroke-width="2" stroke-opacity="0.698039" d="M648,-95C827.38,-95 865.47,-34.42 1044,-17 1123.62,-9.23 1144,-16.8 1224,-17 1261.01,-17.09 1301.93,-17.29 1336.84,-17.48"/>
<polygon fill="#079117" fill-opacity="0.698039" stroke="#079117" stroke-width="2" stroke-opacity="0.698039" points="1336.37,-20.98 1346.39,-17.53 1336.41,-13.98 1336.37,-20.98"/>
</g>
<!-- puuclocks/internal/sockets&#45;&gt;puuclocks/internal/models/actions -->
<g id="edge24" class="edge">
<title>puuclocks/internal/sockets:e&#45;&gt;puuclocks/internal/models/actions</title>
<path fill="none" stroke="#620791" stroke-width="2" stroke-opacity="0.698039" d="M648,-95C696.3,-95 707.88,-102.85 756,-107 954.8,-124.16 1187.64,-136.81 1318.37,-143.24"/>
<polygon fill="#620791" fill-opacity="0.698039" stroke="#620791" stroke-width="2" stroke-opacity="0.698039" points="1317.9,-146.72 1328.06,-143.71 1318.24,-139.73 1317.9,-146.72"/>
</g>
<!-- puuclocks/internal/sockets&#45;&gt;puuclocks/internal/service -->
<g id="edge25" class="edge">
<title>puuclocks/internal/sockets:e&#45;&gt;puuclocks/internal/service</title>
<path fill="none" stroke="#074991" stroke-width="2" stroke-opacity="0.698039" d="M648,-95C699.83,-95 707.6,-120.45 756,-139 763.45,-141.85 771.27,-144.78 779.06,-147.64"/>
<polygon fill="#074991" fill-opacity="0.698039" stroke="#074991" stroke-width="2" stroke-opacity="0.698039" points="777.78,-150.9 788.37,-151.03 780.17,-144.32 777.78,-150.9"/>
</g>
<!-- puuclocks/internal/sockets&#45;&gt;puuclocks/internal/service/game -->
<g id="edge26" class="edge">
<title>puuclocks/internal/sockets:e&#45;&gt;puuclocks/internal/service/game</title>
<path fill="none" stroke="#910717" stroke-width="2" stroke-opacity="0.698039" d="M648,-95C779.97,-95 932.12,-92 1030.28,-89.68"/>
<polygon fill="#910717" fill-opacity="0.698039" stroke="#910717" stroke-width="2" stroke-opacity="0.698039" points="1030.23,-93.18 1040.15,-89.44 1030.07,-86.18 1030.23,-93.18"/>
</g>
</g>
</svg>
